<svg width="800" height="800" viewBox="0 0 800 800" fill="none" xmlns="http://www.w3.org/2000/svg">
<path d="M166.659 335.281H58.4971L220.867 513.594L386.783 335.281H273.302C257.597 210.969 338.655 132.781 379.184 96.7813C222.336 97.4563 172.148 256.063 166.659 335.281Z" fill="white" stroke="black"/>
<path d="M230.826 520.625C224.868 527.24 214.492 527.24 208.534 520.625L53.5509 348.545C44.8581 338.893 51.7076 323.507 64.6967 323.507H140.299C148.308 323.507 154.862 317.206 155.64 309.235C161.24 251.901 184.07 198.792 221.322 157.43C264.55 109.433 322.025 83 383.16 83V83C396.727 83 401.73 100.83 390.143 107.888L389.058 108.549C323.617 148.411 282.964 224.717 282.964 307.685C282.964 308.268 282.966 308.85 282.97 309.433C283.026 317.351 289.63 323.507 297.548 323.507H374.663C387.652 323.507 394.502 338.893 385.809 348.545L230.826 520.625ZM258.441 307.685C258.441 253.778 273.769 202.381 300.953 160.008C309.268 147.047 297.861 130.276 284.732 138.322C221.638 176.985 178.809 251.603 178.809 337.12V337.12C178.809 344.638 172.714 350.733 165.195 350.733H123.898C110.909 350.733 104.059 366.12 112.752 375.772L208.533 482.119C214.491 488.734 224.867 488.734 230.825 482.119L326.606 375.772C335.299 366.12 328.45 350.733 315.461 350.733H273.514C266.674 350.733 260.926 345.592 260.168 338.793V338.793C259.023 328.52 258.441 318.054 258.441 307.685Z" fill="white"/>
<path d="M663.268 430.718H672.348C699.273 430.718 713.397 398.754 695.269 378.847L602.808 277.307C590.6 263.9 569.543 263.787 557.192 277.061L462.711 378.601C444.262 398.429 458.309 430.718 485.393 430.718H500.357C515.976 430.718 529.404 442.383 529.659 458C530.704 521.918 506.126 572.249 478.085 609.631C460.938 632.49 475.608 664.414 501.656 652.662C583.561 615.708 619.664 524.634 630.834 459.375C633.582 443.319 646.978 430.718 663.268 430.718Z" fill="white" stroke="black"/>
<path d="M570.174 245.375C576.132 238.76 586.508 238.76 592.466 245.375L747.449 417.455C756.142 427.107 749.292 442.493 736.303 442.493H660.701C652.692 442.493 646.138 448.794 645.36 456.765C639.76 514.099 616.93 567.208 579.678 608.57C536.45 656.567 478.975 683 417.84 683V683C404.273 683 399.27 665.17 410.857 658.112L411.942 657.451C477.383 617.589 518.036 541.283 518.036 458.315C518.036 457.732 518.034 457.15 518.03 456.567C517.974 448.649 511.37 442.493 503.452 442.493H426.337C413.348 442.493 406.498 427.107 415.191 417.455L570.174 245.375ZM542.559 458.315C542.559 512.222 527.231 563.619 500.047 605.992C491.732 618.953 503.139 635.724 516.268 627.678C579.362 589.015 622.191 514.397 622.191 428.88V428.88C622.191 421.362 628.286 415.267 635.805 415.267H677.102C690.091 415.267 696.941 399.88 688.248 390.228L592.467 283.881C586.509 277.266 576.133 277.266 570.175 283.881L474.394 390.228C465.701 399.88 472.55 415.267 485.539 415.267H527.486C534.326 415.267 540.074 420.408 540.832 427.207V427.207C541.977 437.48 542.559 447.946 542.559 458.315Z" fill="white"/>
</svg>
