<svg width="800" height="800" viewBox="0 0 800 800" fill="none" xmlns="http://www.w3.org/2000/svg">
<path d="M448.5 242.441V139.792C448.5 110.304 484.226 95.6209 504.962 116.586L742.794 357.043C755.413 369.802 755.524 390.306 743.043 403.201L505.212 648.91C484.583 670.221 448.5 655.638 448.5 625.978V512.21C448.5 495.756 436.315 481.635 419.9 480.501C269.114 470.085 158.953 548.743 86.9642 621.439C64.9695 643.65 27.7678 628.959 34.3957 598.411C81.7416 380.196 288.144 295.618 418.188 276.436C435.247 273.92 448.5 259.685 448.5 242.441Z" fill="white" stroke="black"/>
<path d="M771.716 405.941C787.337 390.32 787.337 364.993 771.716 349.372L495.852 73.508C470.653 48.3094 427.567 66.156 427.567 101.792V211.253C427.567 232.531 410.866 249.893 389.784 252.768C292.615 266.019 202.859 310.36 132.32 380.899C46.9922 466.225 0 579.674 0 700.347V700.347C0 725.389 33.3754 733.944 45.4203 711.989V711.989C116.286 582.816 251.941 502.572 399.441 502.572V502.572C415.296 502.572 427.567 515.854 427.567 531.709V653.521C427.567 689.157 470.653 707.004 495.851 681.805L771.716 405.941ZM399.441 454.166C322.557 454.166 248.544 473.64 183.384 509.047C146.781 528.937 100.682 497.599 125.156 463.888C198.528 362.821 317.604 296.981 451.769 296.981V296.981C465.135 296.981 475.97 286.146 475.97 272.78V218.648C475.97 183.012 519.056 165.166 544.255 190.364L703.261 349.371C718.882 364.992 718.882 390.318 703.261 405.939L544.255 564.946C519.056 590.144 475.97 572.298 475.97 536.661V481.594C475.97 469.378 466.867 459.077 454.744 457.575V457.575C436.48 455.314 417.873 454.166 399.441 454.166Z" fill="white"/>
</svg>
