<svg width="512" height="512" viewBox="0 0 512 512" fill="none" xmlns="http://www.w3.org/2000/svg">
<path fill-rule="evenodd" clip-rule="evenodd" d="M352.998 211.035L378.331 221.51C394.824 228.711 408.283 241.282 416.727 257.125C436.914 295.621 421.873 343.021 383.213 363.055L203.505 457.463C165.769 475.925 120.116 461.914 99.4011 425.513C77.8942 387.672 91.3525 339.617 129.484 318.274L159.7 302.43L134.366 292.086C117.873 285.015 104.283 272.445 95.9706 256.602C75.7831 218.105 90.8247 170.705 129.484 150.672L309.192 56.1333C347.852 35.8377 395.748 50.5029 416.199 88.8681C436.651 127.233 421.873 174.764 383.213 195.06L352.998 211.035ZM319.748 256.864L214.061 312.382V201.215L319.748 256.864Z" fill="white"/>
</svg>
