<svg width="512" height="512" viewBox="0 0 512 512" fill="none" xmlns="http://www.w3.org/2000/svg">
<path d="M382.936 340.634L383.902 340.116L384.752 339.425C397.628 328.963 419.571 298.732 404.159 260.683C396.402 241.534 380.69 228.474 365.496 219.985C354.407 213.791 342.94 209.656 333.5 207.21V197.279C333.78 197.124 334.06 196.969 334.34 196.815C355.786 184.972 376.012 173.803 389.422 159.788C397.163 151.697 403.046 142.313 405.855 130.913C408.648 119.578 408.189 107.12 404.646 93.1693C400.85 78.2234 389.884 62.4499 374.169 52.3799C358.037 42.0431 336.712 37.6221 313.081 46.1885L312.334 46.4592L311.631 46.8302L114.631 150.83L113.939 151.195L113.303 151.651C100.062 161.137 75.7872 189.483 85.8768 227.92C91.1546 248.026 107.066 262.805 122.593 272.845C134.796 280.735 147.914 286.451 158.5 290.027V299.36C142.431 306.27 120.632 316.897 104.863 332.686C95.5599 342.001 87.8479 353.595 84.9516 367.768C82.028 382.074 84.2695 397.754 92.7141 414.643C99.8496 428.914 109.467 438.809 120.726 444.877C131.896 450.896 143.918 452.74 155.331 452.213C177.503 451.188 198.824 441.177 211.954 432.356L382.936 340.634Z" stroke="white" stroke-width="23"/>
<path d="M207 298V197L305 247.5L207 298Z" fill="white"/>
</svg>
