<svg width="512" height="512" viewBox="0 0 512 512" fill="none" xmlns="http://www.w3.org/2000/svg">
<mask id="path-1-inside-1_404_13" fill="white">
<path fill-rule="evenodd" clip-rule="evenodd" d="M72 184.04C48.804 184.04 30 202.844 30 226.04V412C30 435.196 48.804 454 72 454H440.051C463.247 454 482.051 435.196 482.051 412V226.04C482.051 202.844 463.247 184.04 440.051 184.04H72ZM216 379.751C216 382.031 218.443 383.478 220.443 382.381L331.204 321.63C333.281 320.491 333.281 317.509 331.204 316.37L220.443 255.619C218.443 254.522 216 255.969 216 258.249V379.751Z"/>
</mask>
<path d="M220.443 255.619L212.267 270.524L220.443 255.619ZM220.443 382.381L228.618 397.286L220.443 382.381ZM331.204 321.63L323.029 306.725L331.204 321.63ZM331.204 316.37L323.029 331.275L331.204 316.37ZM47 226.04C47 212.233 58.1929 201.04 72 201.04V167.04C39.4152 167.04 13 193.455 13 226.04H47ZM47 412V226.04H13V412H47ZM72 437C58.1929 437 47 425.807 47 412H13C13 444.585 39.4152 471 72 471V437ZM440.051 437H72V471H440.051V437ZM465.051 412C465.051 425.807 453.858 437 440.051 437V471C472.635 471 499.051 444.585 499.051 412H465.051ZM465.051 226.04V412H499.051V226.04H465.051ZM440.051 201.04C453.858 201.04 465.051 212.233 465.051 226.04H499.051C499.051 193.455 472.635 167.04 440.051 167.04V201.04ZM72 201.04H440.051V167.04H72V201.04ZM323.029 306.725L212.267 367.476L228.618 397.286L339.38 336.536L323.029 306.725ZM212.267 270.524L323.029 331.275L339.38 301.464L228.618 240.714L212.267 270.524ZM233 379.751V258.249H199V379.751H233ZM228.618 240.714C215.289 233.403 199 243.047 199 258.249H233C233 268.89 221.597 275.641 212.267 270.524L228.618 240.714ZM212.267 367.476C221.597 362.359 233 369.109 233 379.751H199C199 394.953 215.29 404.597 228.618 397.286L212.267 367.476ZM339.38 336.536C353.222 328.943 353.222 309.057 339.38 301.464L323.029 331.275C313.339 325.96 313.339 312.04 323.029 306.725L339.38 336.536Z" fill="white" mask="url(#path-1-inside-1_404_13)"/>
<rect x="74" y="121" width="364" height="19" rx="6" fill="white"/>
<rect x="120.051" y="57" width="271" height="19" rx="6" fill="white"/>
</svg>
